<?xml version="1.0" encoding="utf-8"?>
<!-- Generator: Adobe Illustrator 17.0.0, SVG Export Plug-In . SVG Version: 6.00 Build 0)  -->
<!DOCTYPE svg PUBLIC "-//W3C//DTD SVG 1.1//EN" "http://www.w3.org/Graphics/SVG/1.1/DTD/svg11.dtd">
<svg version="1.1" id="Layer_1" xmlns="http://www.w3.org/2000/svg" xmlns:xlink="http://www.w3.org/1999/xlink" x="0px" y="0px"
	 width="500px" height="500px" viewBox="0 0 500 500" enable-background="new 0 0 500 500" xml:space="preserve">
<g>
	<circle fill="#070606" cx="389.445" cy="174.756" r="37.519"/>
	<circle fill="#070606" cx="313.582" cy="249.279" r="37.519"/>
	<path fill="#070606" d="M141.86,138.149H81.837c-3.862,0-6.993,3.131-6.993,6.993v68.045H6.8c-3.862,0-6.993,3.131-6.993,6.993
		v60.023c0,3.862,3.131,6.993,6.993,6.993h68.045v68.045c0,3.862,3.131,6.993,6.993,6.993h60.023c3.862,0,6.993-3.131,6.993-6.993
		v-68.045h68.045c3.862,0,6.993-3.131,6.993-6.993V220.18c0-3.862-3.131-6.993-6.993-6.993h-68.045v-68.045
		C148.853,141.28,145.722,138.149,141.86,138.149z"/>
	<circle fill="#070606" cx="389.445" cy="325.244" r="37.519"/>
	<circle fill="#070606" cx="463.246" cy="249.279" r="37.519"/>
</g>
</svg>
